<svg xmlns="http://www.w3.org/2000/svg" viewBox="0 0 363.67 384.41"><defs><style>.cls-111{fill:#f3b571;}.cls-222{fill:#257863;}.cls-321{fill:#da3327;}</style></defs><g id="Слой_2" data-name="Слой 2"><g id="_1" data-name="1"><rect class="cls-111" x="21.16" y="125.73" width="321.36" height="257.7"/><circle class="cls-222" cx="55.46" cy="171.81" r="3.61"/><circle class="cls-222" cx="89.92" cy="171.81" r="3.61"/><circle class="cls-222" cx="124.39" cy="171.81" r="3.61"/><circle class="cls-222" cx="158.85" cy="171.81" r="3.61"/><circle class="cls-222" cx="193.32" cy="171.81" r="3.61"/><circle class="cls-222" cx="227.78" cy="171.81" r="3.61"/><circle class="cls-222" cx="262.25" cy="171.81" r="3.61"/><circle class="cls-222" cx="296.71" cy="171.81" r="3.61"/><circle class="cls-222" cx="331.18" cy="171.81" r="3.61"/><circle class="cls-222" cx="37.88" cy="197.42" r="3.61"/><circle class="cls-222" cx="72.35" cy="197.42" r="3.61"/><circle class="cls-222" cx="106.81" cy="197.42" r="3.61"/><circle class="cls-222" cx="141.28" cy="197.42" r="3.61"/><circle class="cls-222" cx="175.74" cy="197.42" r="3.61"/><circle class="cls-222" cx="210.21" cy="197.42" r="3.61"/><circle class="cls-222" cx="244.67" cy="197.42" r="3.61"/><circle class="cls-222" cx="279.14" cy="197.42" r="3.61"/><circle class="cls-222" cx="313.6" cy="197.42" r="3.61"/><circle class="cls-222" cx="55.46" cy="223.64" r="3.61"/><circle class="cls-222" cx="89.92" cy="223.64" r="3.61"/><circle class="cls-222" cx="124.39" cy="223.64" r="3.61"/><circle class="cls-222" cx="158.85" cy="223.64" r="3.61"/><circle class="cls-222" cx="193.32" cy="223.64" r="3.61"/><circle class="cls-222" cx="227.78" cy="223.64" r="3.61"/><circle class="cls-222" cx="262.25" cy="223.64" r="3.61"/><circle class="cls-222" cx="296.71" cy="223.64" r="3.61"/><circle class="cls-222" cx="331.18" cy="223.64" r="3.61"/><circle class="cls-222" cx="37.88" cy="249.25" r="3.61"/><circle class="cls-222" cx="72.35" cy="249.25" r="3.61"/><circle class="cls-222" cx="106.81" cy="249.25" r="3.61"/><circle class="cls-222" cx="141.28" cy="249.25" r="3.61"/><circle class="cls-222" cx="175.74" cy="249.25" r="3.61"/><circle class="cls-222" cx="210.21" cy="249.25" r="3.61"/><circle class="cls-222" cx="244.67" cy="249.25" r="3.61"/><circle class="cls-222" cx="279.14" cy="249.25" r="3.61"/><circle class="cls-222" cx="313.6" cy="249.25" r="3.61"/><circle class="cls-222" cx="55.46" cy="275.47" r="3.61"/><circle class="cls-222" cx="89.92" cy="275.47" r="3.61"/><circle class="cls-222" cx="124.39" cy="275.47" r="3.61"/><circle class="cls-222" cx="158.85" cy="275.47" r="3.61"/><circle class="cls-222" cx="193.32" cy="275.47" r="3.61"/><circle class="cls-222" cx="227.78" cy="275.47" r="3.61"/><circle class="cls-222" cx="262.25" cy="275.47" r="3.61"/><circle class="cls-222" cx="296.71" cy="275.47" r="3.61"/><circle class="cls-222" cx="331.18" cy="275.47" r="3.61"/><circle class="cls-222" cx="37.88" cy="301.08" r="3.61"/><circle class="cls-222" cx="72.35" cy="301.08" r="3.61"/><circle class="cls-222" cx="106.81" cy="301.08" r="3.61"/><circle class="cls-222" cx="141.28" cy="301.08" r="3.61"/><circle class="cls-222" cx="175.74" cy="301.08" r="3.61"/><circle class="cls-222" cx="210.21" cy="301.08" r="3.61"/><circle class="cls-222" cx="244.67" cy="301.08" r="3.61"/><circle class="cls-222" cx="279.14" cy="301.08" r="3.61"/><circle class="cls-222" cx="313.6" cy="301.08" r="3.61"/><circle class="cls-222" cx="55.46" cy="327.3" r="3.61"/><circle class="cls-222" cx="89.92" cy="327.3" r="3.61"/><circle class="cls-222" cx="124.39" cy="327.3" r="3.61"/><circle class="cls-222" cx="158.85" cy="327.3" r="3.61"/><circle class="cls-222" cx="193.32" cy="327.3" r="3.61"/><circle class="cls-222" cx="227.78" cy="327.3" r="3.61"/><circle class="cls-222" cx="262.25" cy="327.3" r="3.61"/><circle class="cls-222" cx="296.71" cy="327.3" r="3.61"/><circle class="cls-222" cx="331.18" cy="327.3" r="3.61"/><circle class="cls-222" cx="37.88" cy="352.91" r="3.61"/><circle class="cls-222" cx="72.35" cy="352.91" r="3.61"/><circle class="cls-222" cx="106.81" cy="352.91" r="3.61"/><circle class="cls-222" cx="141.28" cy="352.91" r="3.61"/><circle class="cls-222" cx="175.74" cy="352.91" r="3.61"/><circle class="cls-222" cx="210.21" cy="352.91" r="3.61"/><circle class="cls-222" cx="244.67" cy="352.91" r="3.61"/><circle class="cls-222" cx="279.14" cy="352.91" r="3.61"/><circle class="cls-222" cx="313.6" cy="352.91" r="3.61"/><rect class="cls-321" x="172.21" y="102.66" width="18" height="322.62" transform="translate(-82.76 445.17) rotate(-90)"/><path class="cls-321" d="M179,114.83l3.71-12.94C186,90.3,203.36,31.78,219,17.35A44.58,44.58,0,0,1,282,20a44.63,44.63,0,0,1-2.61,63C263.73,97.36,204,109.84,192.16,112.2ZM249.19,22a28,28,0,0,0-19.05,7.44c-8,7.38-19.85,39-27.71,63.79,25.37-5.78,57.86-15,65.86-22.36A28.15,28.15,0,0,0,250.38,22Z"/><path class="cls-321" d="M179.17,114.84l-12.94-3.71c-11.59-3.32-70.11-20.69-84.54-36.37a44.57,44.57,0,0,1,2.6-63,44.56,44.56,0,0,1,63,2.6h0c14.43,15.67,26.91,75.43,29.27,87.25ZM114.45,16.42A28.16,28.16,0,0,0,93.77,63.65c7.36,8,39,19.85,63.78,27.71-5.79-25.37-15-57.86-22.36-65.86h0a28,28,0,0,0-19.55-9.06C115.24,16.42,114.84,16.42,114.45,16.42Z"/><rect class="cls-222" y="102.97" width="363.67" height="55.23"/><rect class="cls-321" x="172.84" y="158.1" width="18" height="226.31"/></g></g></svg>
