<svg xmlns="http://www.w3.org/2000/svg" viewBox="0 0 354.75 451.5"><defs><style>.cls-1211{fill:#f3b571;}.cls-2{fill:#257863;}.cls-3{fill:#da3327;}</style></defs><g id="Слой_2" data-name="Слой 2"><g id="Layer_1" data-name="Layer 1"><rect class="cls-1211" x="7.32" y="192.83" width="321.36" height="257.7"/><circle class="cls-2" cx="41.62" cy="238.9" r="3.61"/><circle class="cls-2" cx="76.09" cy="238.9" r="3.61"/><circle class="cls-2" cx="110.55" cy="238.9" r="3.61"/><circle class="cls-2" cx="145.02" cy="238.9" r="3.61"/><circle class="cls-2" cx="179.48" cy="238.9" r="3.61"/><circle class="cls-2" cx="213.95" cy="238.9" r="3.61"/><circle class="cls-2" cx="248.41" cy="238.9" r="3.61"/><circle class="cls-2" cx="282.88" cy="238.9" r="3.61"/><circle class="cls-2" cx="317.34" cy="238.9" r="3.61"/><circle class="cls-2" cx="24.05" cy="264.52" r="3.61"/><circle class="cls-2" cx="58.51" cy="264.52" r="3.61"/><circle class="cls-2" cx="92.98" cy="264.52" r="3.61"/><circle class="cls-2" cx="127.44" cy="264.52" r="3.61"/><circle class="cls-2" cx="161.91" cy="264.52" r="3.61"/><circle class="cls-2" cx="196.37" cy="264.52" r="3.61"/><circle class="cls-2" cx="230.84" cy="264.52" r="3.61"/><circle class="cls-2" cx="265.3" cy="264.52" r="3.61"/><circle class="cls-2" cx="299.77" cy="264.52" r="3.61"/><circle class="cls-2" cx="41.62" cy="290.73" r="3.61"/><circle class="cls-2" cx="76.09" cy="290.73" r="3.61"/><circle class="cls-2" cx="110.55" cy="290.73" r="3.61"/><circle class="cls-2" cx="145.02" cy="290.73" r="3.61"/><circle class="cls-2" cx="179.48" cy="290.73" r="3.61"/><circle class="cls-2" cx="213.95" cy="290.73" r="3.61"/><circle class="cls-2" cx="248.41" cy="290.73" r="3.61"/><circle class="cls-2" cx="282.88" cy="290.73" r="3.61"/><circle class="cls-2" cx="317.34" cy="290.73" r="3.61"/><circle class="cls-2" cx="24.05" cy="316.34" r="3.61"/><circle class="cls-2" cx="58.51" cy="316.34" r="3.61"/><circle class="cls-2" cx="92.98" cy="316.34" r="3.61"/><circle class="cls-2" cx="127.44" cy="316.34" r="3.61"/><circle class="cls-2" cx="161.91" cy="316.34" r="3.61"/><circle class="cls-2" cx="196.37" cy="316.34" r="3.61"/><circle class="cls-2" cx="230.84" cy="316.34" r="3.61"/><circle class="cls-2" cx="265.3" cy="316.34" r="3.61"/><circle class="cls-2" cx="299.77" cy="316.34" r="3.61"/><circle class="cls-2" cx="41.62" cy="342.56" r="3.61"/><circle class="cls-2" cx="76.09" cy="342.56" r="3.61"/><circle class="cls-2" cx="110.55" cy="342.56" r="3.61"/><circle class="cls-2" cx="145.02" cy="342.56" r="3.61"/><circle class="cls-2" cx="179.48" cy="342.56" r="3.61"/><circle class="cls-2" cx="213.95" cy="342.56" r="3.61"/><circle class="cls-2" cx="248.41" cy="342.56" r="3.61"/><circle class="cls-2" cx="282.88" cy="342.56" r="3.61"/><circle class="cls-2" cx="317.34" cy="342.56" r="3.61"/><circle class="cls-2" cx="24.05" cy="368.17" r="3.61"/><circle class="cls-2" cx="58.51" cy="368.17" r="3.61"/><circle class="cls-2" cx="92.98" cy="368.17" r="3.61"/><circle class="cls-2" cx="127.44" cy="368.17" r="3.61"/><circle class="cls-2" cx="161.91" cy="368.17" r="3.61"/><circle class="cls-2" cx="196.37" cy="368.17" r="3.61"/><circle class="cls-2" cx="230.84" cy="368.17" r="3.61"/><circle class="cls-2" cx="265.3" cy="368.17" r="3.61"/><circle class="cls-2" cx="299.77" cy="368.17" r="3.61"/><circle class="cls-2" cx="41.62" cy="394.39" r="3.61"/><circle class="cls-2" cx="76.09" cy="394.39" r="3.61"/><circle class="cls-2" cx="110.55" cy="394.39" r="3.61"/><circle class="cls-2" cx="145.02" cy="394.39" r="3.61"/><circle class="cls-2" cx="179.48" cy="394.39" r="3.61"/><circle class="cls-2" cx="213.95" cy="394.39" r="3.61"/><circle class="cls-2" cx="248.41" cy="394.39" r="3.61"/><circle class="cls-2" cx="282.88" cy="394.39" r="3.61"/><circle class="cls-2" cx="317.34" cy="394.39" r="3.61"/><circle class="cls-2" cx="24.05" cy="420" r="3.61"/><circle class="cls-2" cx="58.51" cy="420" r="3.61"/><circle class="cls-2" cx="92.98" cy="420" r="3.61"/><circle class="cls-2" cx="127.44" cy="420" r="3.61"/><circle class="cls-2" cx="161.91" cy="420" r="3.61"/><circle class="cls-2" cx="196.37" cy="420" r="3.61"/><circle class="cls-2" cx="230.84" cy="420" r="3.61"/><circle class="cls-2" cx="265.3" cy="420" r="3.61"/><circle class="cls-2" cx="299.77" cy="420" r="3.61"/><rect class="cls-3" x="158.37" y="169.75" width="18" height="322.62" transform="translate(-163.69 498.43) rotate(-90)"/><rect class="cls-3" x="159" y="192.83" width="18" height="258.67"/><path class="cls-3" d="M181.14,135l8.65-10.32c7.74-9.24,47.38-55.66,67.57-62.48a44.57,44.57,0,0,1,56.49,28,44.63,44.63,0,0,1-28,56.49C265.7,153.47,206,140.6,194.27,138ZM283,78.69a28,28,0,0,0-20.43-.94c-10.31,3.49-34,27.55-51.23,47,25.53,5,59,9.8,69.26,6.32a28.15,28.15,0,0,0,3.47-51.91C283.76,79,283.39,78.85,283,78.69Z"/><path class="cls-3" d="M181.33,135.09,171,126.44c-9.24-7.74-55.66-47.38-62.48-67.57a44.57,44.57,0,0,1,28-56.49,44.57,44.57,0,0,1,56.49,28h0c6.82,20.19-6.05,79.86-8.7,91.62ZM162.18,18.87a28.16,28.16,0,0,0-38.09,34.75c3.48,10.31,27.55,34,47,51.24,5-25.54,9.8-59,6.32-69.26h0a28,28,0,0,0-14.19-16.23C162.9,19.19,162.53,19,162.18,18.87Z"/><rect class="cls-2" x="-4.46" y="122.95" width="363.67" height="55.23" transform="translate(76.46 -59.07) rotate(23.97)"/></g></g></svg>
